<?xml version="1.0" encoding="utf-8"?>
<!-- Generator: Adobe Illustrator 21.0.0, SVG Export Plug-In . SVG Version: 6.00 Build 0)  -->
<svg version="1.1" id="Слой_1" xmlns="http://www.w3.org/2000/svg" xmlns:xlink="http://www.w3.org/1999/xlink" x="0px" y="0px"
	 viewBox="0 0 476.1 558" style="enable-background:new 0 0 476.1 558;" xml:space="preserve">
<style type="text/css">
	.st0{fill-opacity:0;}
	.st1{fill:#808080;fill-opacity:0.1333;}
	.st2{stroke:#000000;stroke-width:0.817;}
	.st3{stroke:#000000;stroke-width:0.4354;}
	.st4{fill:#FFFFFF;}
	.st5{fill:#FFFFFF;stroke:#000000;stroke-width:0.4354;}
</style>
<path class="st0" d="M339.6,41.1c0-0.5,0.3-0.8,0.8-0.8c0.5,0,0.8,0.3,0.8,0.8c0,0.5-0.3,0.8-0.8,0.8
	C339.8,41.8,339.6,41.6,339.6,41.1"/>
<path class="st1" d="M337,48.6c0-0.3,0.1-0.4,0.4-0.4c0.3,0,0.4,0.1,0.4,0.4c0,0.3-0.1,0.4-0.4,0.4C337.1,48.9,337,48.8,337,48.6"/>
<g transform="matrix(2.3077 0 0 2.2857 -139.05 -128.42)">
	<g transform="translate(779.5 53.815)">
		<path class="st2" d="M-618.6,3.4c2.4-1.6,6.6-0.3,9.8-0.8c2.1,2.5,6.5,1,8.9,3c2.6,1.8,5.5,1.5,6.7,4.7c0.7,4.6,7.4,1.2,7.7,5.7
			c2.3,1.6,3.2,4.6,6,6.8c-0.9,4,3.2,5.1,3.8,8.3c2.1,2-0.6,7,1.5,9c3.3,2.8-3.5,6.2,0.8,8.3c-1.9,3.4-2.9,2.4-1.5,7.4
			c0.8,5.8,1.7,8.1,1.7,8.1c0.7,3.9-1.5,19-2.8,20.6c-1.3,4-2.2,3.6-3.3,7.8c-0.2,3.7-4.2,2.9-4.8,5.3c0,0-1.8,0.7-3.9,2.3
			c0.5,5.1-1.8,10.4-1.8,14.7c0.1,3.7-0.3,7.4,0.2,11.1c2.8,1.9,4.8,4.7,7.3,6.9c3.1,6.2,12.7,8,15.8,11.3
			c13.8,7.8,31.4,10.3,41.9,15c2.4,1.7,8.9,4.8,11.8,5.5l-0.5,82l-205.5-0.5l0.5-78.2c18.5-5.4,48.2-16.1,60.9-27.7
			c2.8-2,4.1-4.9,6-7.5c3.1-1.7,3.3-5.1,3-8.9c-0.8-8.1-0.2-16.6-1.7-23.2c-2.8-1.3,0.1-5.3-4.2-4.7c-3.3,0.1-5.7-9.2-7.6-14.1
			c-0.9-3.4-1.9-5.5-1.5-9c-0.4-3.5,0.2-6.5,1.5-9c-0.5-3,1.3-7.5-1.5-9.2c-0.1-3.7,0.3-7.4-0.2-11.1c-2.7-1.5-0.7-6.2-1.3-9.1
			c0-3.3,2.5-5.1,1.5-9c1.3-2.9,4.1-4.8,4.5-8.2c1.7-2.9,4.8-3.7,7.3-5.6c2.3-2,5.4-3.2,8.3-4.3c3.9-1.3,5.9,2.8,8.2-0.2
			c1.9-2.3,6.2-0.9,8.4-2.8C-624.3,3.7-620.4,5.1-618.6,3.4L-618.6,3.4z"/>
		<path class="st3" d="M-716.5,245.8l1.5-79.8c13.8-7.9,32.5-7.9,55.4-25.1l8.4-7.6l37.5,29.4L-582,133
			c26.9,19.6,43.3,22.9,61.9,29.2l-1.3,82.7L-716.5,245.8z"/>
		<path class="st4" d="M-651.4,132.5l36.3,29.4l31.9-29.4c-0.4,6.4,0.8,15.5,2.5,39.1c1.6,21.6-3.3,56.5-4.8,74.5l-55.8-0.1
			L-651.4,132.5z"/>
		<path class="st3" d="M-634.9,245.8l12-59.3l-12.5-13.2l10-13.2c7.1-0.8,13.7-0.6,20.2,0.2l9.6,10.7l-10.4,15.4l14.4,59.4
			L-634.9,245.8z"/>
		<path class="st5" d="M-613,159.9l29.2-27.9l3.1,38.7l-9.8,15.1C-590.8,175.1-603.4,162.8-613,159.9L-613,159.9z"/>
		<path class="st5" d="M-616.6,160.1l-34.6-27.2l2.7,37.1l9.5,16.2C-638.6,175.4-626.2,163-616.6,160.1L-616.6,160.1z"/>
	</g>
</g>
</svg>
