<?xml version="1.0" encoding="utf-8"?>
<!-- Generator: Adobe Illustrator 21.0.0, SVG Export Plug-In . SVG Version: 6.00 Build 0)  -->
<svg version="1.1" id="Слой_1" xmlns="http://www.w3.org/2000/svg" xmlns:xlink="http://www.w3.org/1999/xlink" x="0px" y="0px"
	 viewBox="0 0 213.9 15.8" style="enable-background:new 0 0 213.9 15.8;" xml:space="preserve">
<style type="text/css">
	.st0{fill:#032B5F;}
	.st1{fill:#152259;}
	.st2{fill:#033B76;}
	.st3{fill:#015581;}
	.st4{fill:#0074AD;}
	.st5{fill:#0081BA;}
	.st6{fill:#00879A;}
	.st7{fill:#009670;}
	.st8{fill:#0BA23B;}
	.st9{fill:#76B729;}
	.st10{fill:#B8CF0A;}
	.st11{fill:#DCDC00;}
	.st12{fill:#FFF265;}
	.st13{fill:#FED403;}
	.st14{fill:#FBB901;}
	.st15{fill:#FFCD01;}
	.st16{fill:#F9A600;}
	.st17{fill:#EE7E00;}
	.st18{fill:#E74013;}
	.st19{fill:#EA5C10;}
	.st20{fill:#E84234;}
	.st21{fill:#E4072A;}
	.st22{fill:#BD1549;}
	.st23{fill:#BC155B;}
	.st24{fill:#A11A5D;}
	.st25{fill:#8B1C60;}
	.st26{fill:#622161;}
	.st27{fill:#6F215F;}
	.st28{fill:#4E1C51;}
	.st29{fill:#3E1D52;}
	.st30{fill:#2D1837;}
	.st31{fill:#331940;}
</style>
<polygon class="st0" points="213.9,0 200.5,0 200.5,7.9 "/>
<polygon class="st1" points="213.9,0 213.9,15.8 200.5,7.9 "/>
<polygon class="st0" points="213.9,15.8 200.5,15.8 200.5,7.9 "/>
<polygon class="st2" points="187.1,0 200.5,0 200.5,7.9 "/>
<polygon class="st2" points="187.1,15.8 200.5,15.8 200.5,7.9 "/>
<polygon class="st3" points="187.1,0 187.1,15.8 200.5,7.9 "/>
<polygon class="st4" points="187.1,0 187.1,15.8 173.7,7.9 "/>
<polygon class="st5" points="187.1,0 173.7,0 173.7,7.9 "/>
<polygon class="st5" points="187.1,15.8 173.7,15.8 173.7,7.9 "/>
<polygon class="st6" points="160.4,15.8 173.7,15.8 173.7,7.9 "/>
<polygon class="st6" points="160.4,0 173.7,0 173.7,7.9 "/>
<polygon class="st7" points="160.4,0 160.4,15.8 173.7,7.9 "/>
<polygon class="st8" points="160.4,0 160.4,15.8 147,7.9 "/>
<polygon class="st9" points="160.4,0 147,0 147,7.9 "/>
<polygon class="st9" points="160.4,15.8 147,15.8 147,7.9 "/>
<polygon class="st10" points="133.6,15.8 147,15.8 147,7.9 "/>
<polygon class="st10" points="133.6,0 147,0 147,7.9 "/>
<polygon class="st11" points="133.6,0 133.6,15.8 147,7.9 "/>
<polygon class="st12" points="133.6,0 133.6,15.8 120.2,7.9 "/>
<polygon class="st13" points="133.6,0 120.2,0 120.2,7.9 "/>
<polygon class="st13" points="133.6,15.8 120.2,15.8 120.2,7.9 "/>
<polygon class="st14" points="106.8,0 106.8,15.8 120.2,7.9 "/>
<polygon class="st15" points="106.8,0 120.2,0 120.2,7.9 "/>
<polygon class="st15" points="106.8,15.8 120.2,15.8 120.2,7.9 "/>
<polygon class="st16" points="106.8,0 106.8,15.8 93.5,7.9 "/>
<polygon class="st17" points="106.8,0 93.5,0 93.5,7.9 "/>
<polygon class="st17" points="106.8,15.8 93.5,15.8 93.5,7.9 "/>
<polygon class="st18" points="80.1,0 80.1,15.8 93.5,7.9 "/>
<polygon class="st19" points="80.1,0 93.5,0 93.5,7.9 "/>
<polygon class="st19" points="80.1,15.8 93.5,15.8 93.5,7.9 "/>
<polygon class="st20" points="80.1,0 80.1,15.8 66.7,7.9 "/>
<polygon class="st21" points="80.1,0 66.7,0 66.7,7.9 "/>
<polygon class="st21" points="80.1,15.8 66.7,15.8 66.7,7.9 "/>
<polygon class="st22" points="53.3,0 53.3,15.8 66.7,7.9 "/>
<polygon class="st23" points="53.3,0 66.7,0 66.7,7.9 "/>
<polygon class="st23" points="53.3,15.8 66.7,15.8 66.7,7.9 "/>
<polygon class="st24" points="53.3,0 53.3,15.8 40,7.9 "/>
<polygon class="st25" points="53.3,0 40,0 40,7.9 "/>
<polygon class="st25" points="53.3,15.8 40,15.8 40,7.9 "/>
<polygon class="st26" points="26.6,0 26.6,15.8 40,7.9 "/>
<polygon class="st27" points="26.6,0 40,0 40,7.9 "/>
<polygon class="st27" points="26.6,15.8 40,15.8 40,7.9 "/>
<polygon class="st28" points="26.6,0 26.6,15.8 13.2,7.9 "/>
<polygon class="st29" points="26.6,15.8 13.2,15.8 13.2,7.9 "/>
<polygon class="st29" points="26.6,0 13.2,0 13.2,7.9 "/>
<polygon class="st30" points="0,0 0,15.8 13.4,7.9 "/>
<polygon class="st31" points="0,0 13.4,0 13.4,7.9 "/>
<polygon class="st31" points="0,15.8 13.4,15.8 13.4,7.9 "/>
</svg>
