<?xml version="1.0" encoding="utf-8"?>
<!-- Generator: Adobe Illustrator 21.0.0, SVG Export Plug-In . SVG Version: 6.00 Build 0)  -->
<svg version="1.1" id="Layer_1" xmlns="http://www.w3.org/2000/svg" xmlns:xlink="http://www.w3.org/1999/xlink" x="0px" y="0px"
	 viewBox="0 0 593.4 315.7" style="enable-background:new 0 0 593.4 315.7;" xml:space="preserve">
<style type="text/css">
	.st0{fill:#fff;}
	.st1{enable-background:new    ;}
	.st2{fill:#fff;}
	.st3{fill:#fff;}
	.st4{font-family:'Chocolatecyr-lat';}
	.st5{font-size:140px;}
	.st6{fill:#fff;}
	.st7{fill:none;stroke:#000000;stroke-width:0.25;stroke-miterlimit:10;}
</style>
<path class="st0" d="M107.5,22.1C99.5,21-5.1,111.3,0.2,172.8C5.2,231,48.1,280,107.3,280c59.2,0,107.4-50,107.2-107.2
	C214.3,102.3,110.7,19.9,107.5,22.1z M78.5,201.4c-7.8,0-14.2-6.4-14.2-14.2c0-7.8,6.4-14.2,14.2-14.2s14.2,6.4,14.2,14.2
	C92.7,195,86.3,201.4,78.5,201.4z M78.5,159.2c-7.8,0-14.2-6.4-14.2-14.2c0-7.8,6.4-14.2,14.2-14.2s14.2,6.4,14.2,14.2
	C92.7,152.8,86.3,159.2,78.5,159.2z M108.6,215.6c-7.8,0-14.2-6.4-14.2-14.2c0-7.8,6.4-14.2,14.2-14.2c7.8,0,14.2,6.4,14.2,14.2
	C122.8,209.2,116.4,215.6,108.6,215.6z M108.6,179.3c-7.8,0-14.2-6.4-14.2-14.2c0-7.8,6.4-14.2,14.2-14.2c7.8,0,14.2,6.4,14.2,14.2
	C122.8,172.9,116.4,179.3,108.6,179.3z M108.6,143.1c-7.8,0-14.2-6.4-14.2-14.2c0-7.8,6.4-14.2,14.2-14.2c7.8,0,14.2,6.4,14.2,14.2
	C122.8,136.7,116.4,143.1,108.6,143.1z M139.1,201.4c-7.8,0-14.2-6.4-14.2-14.2c0-7.8,6.4-14.2,14.2-14.2c7.8,0,14.2,6.4,14.2,14.2
	C153.3,195,146.9,201.4,139.1,201.4z M139.1,159.2c-7.8,0-14.2-6.4-14.2-14.2c0-7.8,6.4-14.2,14.2-14.2c7.8,0,14.2,6.4,14.2,14.2
	C153.3,152.8,146.9,159.2,139.1,159.2z"/>
<g class="st1">
	<path class="st2" d="M317.1,140.2c1.6,0,2.9,0.5,3.8,1.4s1.5,2.1,1.8,3.3s0.5,2.6,0.6,4c0,1.4,0.1,2.5,0.1,3.3
		c0,2.7,0,6.7-0.1,11.9s-0.2,11.1-0.4,17.5c-0.2,6.4-0.3,13.1-0.5,20.2c-0.2,7-0.3,13.7-0.5,20.2s-0.2,12.2-0.3,17.4
		c0,5.2-0.1,9.1-0.1,11.8c0,1.3-0.1,2.7-0.3,4.1c-0.2,1.4-0.6,2.7-1.1,3.8c-0.6,1.2-1.4,2.1-2.4,2.9s-2.4,1.1-4.1,1.1
		c-0.4,0-1.3,0-2.7,0s-3,0-4.7,0.1c-1.7,0-3.3,0.1-4.9,0.1c-1.5,0-2.5,0-2.9,0c-1.1,0-1.9-0.4-2.6-1.1s-1.1-1.8-1.3-3.1
		s-0.4-2.8-0.4-4.5c0-1.7,0-3.5,0-5.4C294,243,294,237,294,230.9s0-12.1,0-18.1c0.1-2.1-0.2-3.6-0.8-4.5c-0.6-0.8-2.1-1.3-4.5-1.4
		c-5.5-0.2-9.8-0.2-12.7-0.1c-3,0.1-5.2,0.8-6.5,2c-1.3,1.3-2.1,3.3-2.3,6c-0.2,2.8-0.3,6.7-0.3,11.9c0,2,0,4.3,0.1,7
		c0,2.7,0.1,5.4,0.1,8.2s0,5.5,0.1,8.2c0,2.7,0.1,5,0.1,7.1c0.1,2.1-0.3,3.6-1.2,4.6c-0.9,1-2.5,1.5-5,1.5c-1.6,0-3.1,0-4.5,0
		s-2.9,0-4.4-0.1c-2,0-3.7,0-5.2-0.1c-1.5,0-2.8-0.3-3.8-0.9c-1-0.5-1.8-1.3-2.4-2.4c-0.6-1.1-0.9-2.6-0.9-4.7
		c-0.2-3.8-0.3-9.1-0.3-15.8s-0.1-14-0.1-22c0-7.9-0.1-16-0.1-24.2s0-15.7,0-22.5s0-12.4,0-16.9c0-4.4,0-6.9,0-7.3
		c0-2.1,0.5-3.5,1.5-4.4s2.5-1.5,4.5-1.7c2-0.3,4.5-0.3,7.5-0.2s6.5,0.2,10.5,0.2c1.3,0.3,2.3,0.8,2.9,1.6s1,1.7,1.3,2.7
		s0.4,2.1,0.3,3.1c0,1.1-0.1,2.1-0.1,3c-0.1,4.9-0.2,9.9-0.2,14.9s0.1,10.1,0.3,15.2c0.1,2.2,0.4,3.8,1,4.8s2.3,1.4,5.3,1.3
		c5.1-0.1,9-0.3,11.8-0.5s4.8-0.9,6-2.1c1.3-1.2,2-3,2.2-5.5s0.3-6.1,0.3-10.8v-18.7c0-0.8,0-1.7,0.1-2.8c0-1,0.3-2,0.6-2.9
		c0.4-0.9,1-1.7,1.9-2.4s2.2-1,3.9-1L317.1,140.2L317.1,140.2z M248.3,168.2c-0.2-1.3-0.1-2.6,0.3-3.9c0.4-1.3,0.7-2.6,1.1-3.9
		c0.4-1.4,0.6-2.8,0.5-4.3c0-1.5-0.6-3.2-1.6-5c-1.2,3.5-1.7,6.6-1.5,9.3C247.4,163,247.8,165.7,248.3,168.2z M313,248.8
		c0.1-1.1,0.1-2.2-0.1-3.3c-0.1-1.1-1-1.8-2.7-2c-0.9-0.1-1.6,0-2,0.3s-0.7,0.7-0.9,1.2c-0.1,0.5-0.2,1.1-0.2,1.7s-0.1,1.2-0.3,1.7
		c0,0.4-0.1,0.8-0.2,1.3s-0.2,0.9-0.2,1.3s0.2,0.7,0.5,1c0.3,0.2,1,0.3,2.1,0.3c1.1-0.1,2-0.4,2.8-0.9
		C312.6,250.9,313,250,313,248.8z"/>
	<path class="st2" d="M386.8,139.9c4.3,0,7.6,0,9.8,0.1c2.3,0.1,4,0.5,5.1,1.1c1.1,0.7,1.9,1.7,2.2,3.1c0.3,1.4,0.6,3.5,0.9,6
		c0.2,2.6,0.3,5.9,0.5,10.1c0.1,4.2,0.3,8.8,0.3,13.7c0.1,4.9,0.2,10,0.2,15.2s0.1,10.1,0.1,14.8c0,4.6,0,8.7-0.1,12.3
		s-0.2,6.2-0.4,7.9c-0.4,4.6-1.2,9-2.6,13.4c-1.3,4.4-3.3,8.3-5.9,11.8s-5.8,6.4-9.7,8.8c-3.9,2.4-8.5,3.9-13.9,4.5
		c-3.6,0.4-7.3,0.3-11-0.1c-3.7-0.5-7.2-1.4-10.6-2.8c-3.3-1.4-6.3-3.3-9.1-5.7c-2.7-2.4-4.9-5.3-6.5-8.8
		c-2.9-6.2-4.8-12.6-5.7-19.1s-1.5-13.1-1.7-19.8c-0.4-9.3-0.4-18.9-0.2-28.6c0.2-9.7,0.3-19.2,0.2-28.6c0-2.5,0.5-4.4,1.5-5.6
		c1-1.3,2.3-2.1,3.9-2.7c1.6-0.5,3.3-0.8,5.2-0.9c1.9-0.1,3.7-0.2,5.5-0.4c8.6-0.9,12.9,2.4,12.9,9.9c0,4.8,0,10,0.1,15.6
		c0,5.6,0.1,11.2,0.1,17c0,5.7,0.1,11.4,0.1,17s0.1,10.8,0.1,15.6c0,2.9,0.2,5.8,0.5,8.8c0.4,3,1.4,5.7,3.1,8.1
		c0.9,1.2,2.1,2.1,3.7,2.6s3.3,0.5,5.2,0.1c1.6-0.4,3-1,4.1-1.9c1.2-0.9,1.8-2.1,2-3.4c0.2-0.9,0.4-2.3,0.5-4s0.2-3.7,0.3-5.7
		c0-2,0.1-3.9,0.2-5.7s0.1-3.2,0.1-4.1c0.2-5.1,0.3-10.5,0.3-15.9c0-5.5,0-10.8,0-15.9c0-5.1-0.1-9.9-0.1-14.5
		c0-4.5-0.1-8.5-0.1-11.8c0-1.2,0.1-2.5,0.2-3.9c0.1-1.3,0.5-2.6,1.1-3.7c0.6-1.1,1.4-2.1,2.6-2.9
		C383,140.3,384.7,139.9,386.8,139.9z M344.2,240.8c2.9,5.6,6.2,9.2,9.8,10.8c3.6,1.6,8.3,1.6,14.1,0c-2.2-0.1-4.4-0.4-6.4-1.1
		c-2-0.6-4-1.4-5.9-2.4s-3.8-2.1-5.7-3.3C348.3,243.6,346.3,242.2,344.2,240.8z"/>
	<path class="st2" d="M477.3,184.7c-0.5,2.2-0.9,4-1.2,5.4c-0.3,1.4-0.5,2.6-0.4,3.8c0,1.2,0.4,2.4,0.9,3.6c0.6,1.3,1.5,2.9,2.9,5
		c2,3,3.4,6.6,4.3,10.8s1.4,8.6,1.5,13.1c0,4.5-0.3,8.9-1.1,13.2c-0.8,4.3-1.9,8-3.4,11.2c-1.6,3.6-4.1,6.5-7.7,8.8
		c-3.5,2.3-7.5,3.5-12,3.7c-3.6,0-7,0-10.2,0.1c-3.1,0-6.2,0.1-9.1,0.1s-5.9,0-9,0c-3,0-6.3,0-9.7-0.1c-7.2-0.1-10.9-3.4-11.2-9.9
		c-0.2-3.1-0.3-7.5-0.5-13.1s-0.3-11.8-0.3-18.6c-0.1-6.8-0.2-13.9-0.2-21.2s-0.1-14.3-0.1-20.9s0-12.6,0.1-17.8
		c0-5.2,0.1-9.1,0.2-11.8c0.1-4.9,2.6-7.6,7.6-8.1c2.6-0.2,5-0.4,7.2-0.7s4.4-0.5,6.6-0.7s4.4-0.3,6.7-0.3c2.3,0,4.6,0,7.1,0.1
		c12.8,0.7,21.9,4.9,27.3,12.4s6.8,17.7,4.1,30.5c-0.1,0.3-0.2,0.5-0.3,0.8C477.4,184.1,477.3,184.4,477.3,184.7z M456.5,221.9
		c-1.4-1.3-2.9-2.3-4.6-2.9c-1.7-0.6-3.5-1-5.3-1c-1.9,0-3.8,0.2-5.7,0.8s-3.8,1.4-5.5,2.5v9.6c0,2.5,0,4.9-0.1,7.2
		c0,2.3,0,3.8,0.1,4.5c4.5,0.6,8.5,0.8,11.9,0.4c3.4-0.4,6.5-1.9,9.2-4.6c1-1,1.7-2.2,2.3-3.6c0.6-1.4,0.9-3,0.9-4.5
		c0-1.6-0.2-3.1-0.7-4.6S457.6,222.9,456.5,221.9z M435.4,187.1c2,0.5,3.9,0.8,5.7,1c1.6,0.2,3.3,0.2,5.1,0.1c1.8-0.1,3.5-0.6,5-1.3
		c1.5-0.9,2.8-2,3.8-3.4s1.6-2.9,1.9-4.5s0.2-3.2-0.3-4.8s-1.3-3.1-2.5-4.4c-1.1-1.1-2.8-1.8-4.9-2.1s-4.2-0.3-6.2-0.1
		c-2.4,0.2-5,0.6-7.7,1.2v18.3H435.4z M464.9,161.3c-0.9-2.1-1.8-3.9-2.8-5.2c-0.9-1.3-2-2.2-3.1-2.7c-1.2-0.5-2.5-0.7-4-0.5
		s-3.3,0.7-5.5,1.4c2.5,1.1,5,2.2,7.4,3.3C459.4,158.8,462,160,464.9,161.3z M455.8,254.8c3,0.5,5.8,0.2,8.4-0.9s4.8-2.5,6.6-4.5
		c1.8-2,3-4.4,3.8-7c0.8-2.7,0.8-5.5,0-8.5c-0.2,3.9-0.9,6.9-2.3,9c-1.3,2.1-2.9,3.7-4.8,4.9s-3.9,2.3-5.9,3.2
		C459.5,251.8,457.6,253.1,455.8,254.8z"/>
</g>
<text transform="matrix(1 0 0 1 487.3363 262.9556)" class="st3 st4 st5">.</text>
<g class="st1">
	<path class="st0" d="M520.2,243.3c0-0.3,0.3-0.8,0.4-1.3c0.3-0.9,0.9-1.7,1.8-2.5l0.6-0.3c0.9-0.3,1.9-0.4,3.1-0.2
		c0.5,0.1,0.8,0.3,1,0.7c0.1,0.3,0.1,0.5-0.1,0.8l-0.6,0.5c-0.5,0.5-1,1.1-1.7,2c-0.1,0-0.1,0.1-0.2,0.3c-0.5,1.3-1.4,2.7-1.4,4.2
		c-0.3,0.7-0.7,3-0.8,3.5c-0.1,0.4-0.1,1.3-0.2,2.6c-0.3,1.6,0.2,3,0.6,4.3c0.2,0.8,0.7,1.5,1.4,2c0.2,0.3,0.5,0.4,1,0.3h0.4
		c1.7-0.9,2.9-1.6,3.4-2.2c0.8-0.9,1.5-2.2,2.3-3.1c0.1-0.1,0.1-0.2,0.2-0.5c0.4-1.1,1.2-2,1.7-3.1c0.8-1.5,1.4-2.8,1.7-3.9l2.3-4.7
		c0.3-0.5,0.7-0.5,1.4-0.2c0.1,0.1,0.2,0.3,0.2,0.4l-0.3,1.1c-0.9,2-2.6,5.9-3.7,7.6c-0.5,0.8-0.9,1.8-1.3,2.5
		c-0.3,0.5-0.4,0.8-0.4,0.9l-1.6,2.8c-0.5,1.1-1.2,2-2.1,2.5l-0.7,0.5c-0.6,0.6-1.5,1-2.7,1.1c-0.5,0.1-1,0.1-1.4,0.1
		c-0.5,0-0.9-0.1-1.2-0.3c-0.4-0.1-0.7-0.3-1-0.6c-0.5-0.2-1.2-0.8-1.9-1.7c-0.7-1-1.2-2.2-1.5-3.7c-0.3-1.7-0.5-2.8-0.5-3.3
		C518.4,249,519,246,520.2,243.3z"/>
	<path class="st0" d="M548.3,246.2c0,0.3,0.1,0.6,0.4,0.7l1.9,0.5c0.2,0,0.5-0.1,0.9-0.3c1.2-0.7,2-1.5,2.5-2.4l0.9-1.7
		c0.1-0.4,0.4-0.8,0.7-1.1c0.3-0.1,0.5-0.1,0.8,0c0.1,0.3,0.2,0.3,0.5,0.4c0.4,0.4,0.5,0.8,0.3,1.2c-0.7,1.5-1.3,2.5-1.8,3.1
		l-1.3,1.3c-0.7,0.8-1.7,1-2.6,1.4c-0.1,0.1-0.4,0.1-0.7,0c-0.5,0-1.1-0.3-1.5-0.4c-0.3,0-0.7,0-1.1-0.1c-0.2,0-0.4,0.1-0.5,0.4
		c0,0.1,0,0.3-0.1,0.5c-0.5,2.1-0.9,3.6-1.4,4.5l-0.5,1.3c-0.1,0.5-0.5,1.1-0.6,1.6c-0.3,0.8-0.4,1.1-0.3,0.9
		c-0.1,0.7-0.6,1.3-1.3,1.7c-1.3,0.7-2.6,0.8-3.9,0.3l-0.6-0.3c-1.5-1.3-2.3-2.4-2.6-3.3c0-0.3-0.2-0.5-0.3-0.8
		c-0.3-0.9-0.4-1.7-0.7-2.6c-0.3-0.7-0.4-1.9-0.3-3.5c0.1-0.9,0.2-1.8,0.5-2.9c0.4-1.1,0.8-1.9,0.8-3.1c0-0.1,0.1-0.2,0.3-0.5
		c0,0.1,0.1-0.1,0.3-0.5c0.3-0.5,0.9-0.8,1.6-0.8c0.3,0,0.4,0,0.4,0c0.1,0,0.2-0.1,0.2-0.3c0-0.1-0.1-0.3-0.2-0.6l-1.3-4
		c-0.2-0.5-0.2-0.9-0.1-1.3c0.2-1.1,0.3-1.6,0.3-1.6c0-0.5,0.3-1.3,0.8-2.3c0.1-0.2,0.2-0.4,0.5-0.6c1.3-1.1,2.8-1.3,4.3-0.8
		c0.5,0.3,1.1,0.8,1.8,1.7c0.6,0.9,1,1.9,1.3,3c0.4,1.1,0.8,2.3,0.9,3.6c0,0.2,0.1,0.5,0.2,0.9c0.3,1.2,0.5,2.7,0.5,4.4
		C548.2,244.9,548.2,245.7,548.3,246.2z M539.5,253.4c0.2,1.9,0.7,3.5,1.5,4.8c0.1,0.3,0.4,0.4,0.7,0.2c0.7-0.4,1.3-1.1,1.7-2
		c0.9-1.9,1.8-4.4,2.7-7.7c0,0,0.1-0.2,0.1-0.3c0-0.3-0.1-0.6-0.4-0.7c0.1,0.1-0.1-0.1-0.8-0.5c-1.5-1-2.6-1.8-3.3-2.4
		c-0.3-0.3-0.6-0.2-0.7,0.2c-0.3,1.2-0.8,2.5-1.1,3.7c-0.4,1.3-0.4,2.8-0.5,3.7C539.5,253.1,539.5,253.4,539.5,253.4z M546.4,243.7
		c0-1.1-0.1-2-0.3-2.9c-0.3-0.9-0.5-1.8-0.6-2.9c-0.3-0.7-0.6-1.9-1.1-3.4l-0.7-1.3l-0.9-1.1c-0.3-0.3-0.6-0.3-0.9,0.1
		c-0.7,0.8-1,1.5-0.9,2v0.7c-0.1,0.8,0.1,2,0.6,3.6c0.7,1.8,1.2,3,1.7,3.5c0,0,0.1,0.2,0.3,0.6c0.5,1,1.2,1.9,2.2,2.6
		c0.2,0.1,0.3,0.1,0.3,0.1c0.2,0,0.3,0,0.3-0.1L546.4,243.7L546.4,243.7z"/>
	<path class="st0" d="M577.4,246.1c0,0,0-0.2,0-0.5c0.2-1.2,0.2-2.1,0-2.6c0.1,0.2,0.1-0.2,0.1-1.1c0-0.2-0.1-0.3-0.2-0.2h-0.2
		c-0.3,0.7-0.7,1.3-0.8,1.8c-0.9,2.4-1.9,4.7-2.6,7.1c-0.4,1.3-1.1,2.6-1.5,3.9c-0.1,0.3-0.3,0.5-0.5,0.6c-2,0.9-3.3,0.5-4-1.4
		c-0.2-0.3-0.3-0.7-0.3-1.1c-0.3-1.3-0.6-2.6-0.5-3.9v-0.8c-0.1-0.4-0.3-1.4-0.4-3c-0.1-1.2-0.3-2.1-0.3-3.3s-0.2-2.3-0.2-3.6
		c-0.1-0.5,0-1.2,0-1.7c0-0.3,0-0.4-0.1-0.4s-0.2,0.1-0.2,0.4l-0.3,1.1c-0.7,2.1-1.1,4.1-1.5,6.1l-0.3,2.1l-0.6,3.3
		c-0.2,1.1-0.3,1.6-0.3,1.6c-0.1,1.3-0.4,2.7-0.8,4.2c-0.1,0.3-0.2,0.6-0.2,0.9l-0.4,2.4c-0.1,0.8-0.5,1.6-1.2,2.5
		c-0.2,0.3-0.5,0.5-0.8,0.5c-0.4,0.1-0.9,0-1.4-0.3c-0.3-0.1-0.5-0.3-0.6-0.6c-0.3-0.5-0.6-1.2-0.7-1.9c-0.5-2-0.7-3.7-0.8-5.1
		l-0.3-2.1c-0.1-0.8-0.2-1.7-0.1-2.7c0.1-1.3,0-2.6-0.1-3.9c0-0.9,0-1.2,0-1c0.1-0.7,0-1.3-0.4-1.8c-0.1-0.2-0.1-0.4,0.1-0.7
		c0.3-0.3,0.6-0.6,0.9-0.7c0.5,0,1-0.2,1.5-0.2c0.5-0.1,0.8-0.1,1.1-0.1c1.4,0.3,2,1.1,1.9,2.5c-0.1,1.2-0.2,2.1-0.1,2.7v0.8
		c-0.1,1.5-0.2,2.7-0.2,3.9c-0.1,0.6-0.1,1.4,0,2.3c0,0.7,0.1,1.2,0.1,1.6c0,0.1,0,0.2,0,0.2l0.2-0.2c0.2-0.7,0.3-1.1,0.3-1
		c0.2-1.2,0.5-2.9,1-5.2c0.1-0.2,0.1-0.6,0.1-1.3c0.1-1.2,0.3-2.4,0.6-3.5l1.2-4.5c0.1-1.1,0.4-2,0.5-3.1c0.3-1.1,0.7-2.1,1.3-2.9
		c0.3-0.5,0.7-0.7,1.3-0.6c0.7,0.1,1.1,0.2,1,0.1c0.6,0.3,1,0.7,1.1,1.2c0.3,0.9,0.7,1.7,0.7,2.6c0,0.2,0.1,0.5,0.2,0.8
		c0.3,1.1,0.6,2.5,0.7,4.1c0,1.5,0.3,2.8,0.2,4.3c-0.1,0.6-0.1,1.3,0,2.2l0.3,4.1c0,0,0,0.2,0.1,0.6c0,0.1,0,0.1,0.1,0.1
		c0,0,0.1,0,0.2,0c0.2-0.3,0.3-0.4,0.3-0.4l0.8-2.5c0.4-1.1,0.8-2.2,1.3-3.3c0.1-0.1,0.2-0.3,0.2-0.4c0.1-1.1,0.6-1.8,1-2.9
		c0.3-0.9,0.8-1.8,1.5-2.6c0.3-0.2,0.5-0.3,0.4-0.3c0.3-0.1,0.6-0.2,0.7-0.2c0.9,0,1.7,0.2,2.2,0.6c0.5,0.5,1.1,1.1,1.8,1.5
		c0.3,0.2,0.5,0.6,0.5,1.1c0.1,0.9,0.1,1.6,0.1,2.1c0,0.7,0,1,0,0.9c0.1,0.3,0.1,1.3,0,2.9c-0.1,1.3-0.1,2.4-0.1,3.1
		c0,1.1,0,2.3,0.1,3.4c0,0.8,0.1,1.4,0.2,2.1c0,0.4,0.1,0.9,0.1,1.3c0,0.5,0.2,1,0.2,1.4c0,1.6,0.5,2.9,0.9,4.4l0.1,0.1
		c0.1,0.2,0.3,0.2,0.6,0.1c0.5-0.3,1-0.8,1.3-1.4l1.5-2.7c-0.1,0.2-0.1,0,0.2-0.5l2.1-6.7c0.8-2.5,1.5-5.1,2.3-7.8l0.4-1.9
		c0.1-0.8,0.5-1,1.2-0.6c0.1,0.2,0.2,0.3,0.2,0.4c-0.4,0.9-0.6,2.1-0.7,3c-0.3,0.9-0.7,1.8-0.7,2.7c-0.1,0.3-0.3,0.5-0.3,0.6
		c-0.2,0.5-0.3,0.8-0.3,1c-0.1,0.7-0.5,1.8-1,3.1l-1.1,3.9c-0.1,0.3-0.1,0.4-0.1,0.5c-0.3,1.7-1.1,3.3-1.8,4.9
		c-0.3,0.5-0.8,1.3-1.6,2.3c-0.4,0.5-1,0.8-1.7,0.9c-1.6,0.1-2.9-0.5-3.8-1.6c-0.7-0.9-1.2-2.1-1.6-3.7c-0.5-1.8-0.8-3.5-1-5.2
		c-0.3-2.7-0.4-4.9-0.3-6.6C577.4,247.8,577.5,246.9,577.4,246.1z"/>
</g>
<g class="st1">
	<path class="st6" d="M258.6,49.6c-1,3.4-1.8,5.9-2.2,7.7c-0.6,1.3-0.7,2.8-1.1,4.3c-0.3,1.5-0.4,2.2-0.4,2.1c-1,3.4-2,7.1-2.7,11.3
		c-0.7,3.4-1.1,6.7-1.7,9.9c-0.6,2.9-0.8,6-1.4,8.8c-1,5.3-1.1,10.2-0.6,14.6c0.1,1.8-0.7,2.7-2.7,2.2c-2-0.4-2.9-1.5-3.1-3.4
		c-0.3-1.3-0.4-2.7-0.4-4.2L241.2,86c-0.1-5.6,0-11.2,0.1-16.9c0.4-5.7,0.4-11.6,0.8-17.6c0-0.7,0-2.1,0.1-4.2
		c-0.6,0.4-0.8,0.7-0.8,0.8c-1,1.5-1.8,2.9-2.4,4.6c-1.3,2.9-3.4,5.6-5,8.3c-0.1,0.4-0.8,1.3-2,2.4c-1,1-2,1-2.9,0
		c-1.1-0.8-1.4-1.8-0.8-3.1c1.7-2.2,3.4-4.6,4.9-7c2.4-4.3,4.9-8.8,5.5-13.9c0.1-1.5,0.7-3.1,1.8-4.6c1-1.3,2.2-1.5,3.8-1
		c0.6,0.1,1.1,0.6,1.5,0.7c1.8,0.8,2.8,2.2,2.8,4.3c0,4.6,0.1,9.4-0.3,14.3c-0.1,1.7-0.1,3.5-0.1,5c-0.4,7.8-0.8,15.7-0.8,23.5
		l0.4-1.7c0.1-1.4,0.3-2.1,0.4-2.2c0.1-3.4,1.3-6.7,2-10.1c1-3.9,1.8-7.8,2.9-11.6c1-3.5,1.8-7,3.1-10.4c1.1-2.7,2.5-5,3.8-7.4
		l0.1-0.3c2.1-3.9,5.5-2.8,7.7-1c0.8,0.7,1.5,2,2,3.5c0.7,2.5,1,4.6,1,6.3c-0.1,3.2-0.6,6.4,0,9.4c0.1,0.6,0.1,1.1,0,1.5
		c-0.4,3.9-0.1,8,0,11.8c0.1,4.1,0.3,8.4,0.3,12.5c0.4,0.1,0.6-0.1,0.7-0.7c0.7-2.9,1.4-6,2.5-9.2c1.3-5,2.7-10.2,4.9-15.1
		c0.7-1.5,1.5-2.9,2.5-4.3c1.8-2.4,4.1-2.8,6.6-1.3c2.2,1.5,3.5,3.2,3.6,5.2c0,1.7,0.1,3.2,0.1,4.9c0,5.7-0.3,11.3-0.3,16.9
		c-0.1,5.3,0.1,9.8,0.6,13.3c0.1,1.5,0.3,2.8,0.3,3.9c0.1,3.9,1.7,7.6,2.9,11.1c0.1,0.4,0.3,0.7,0.7,0.8s0.8,0.1,1.1,0
		c0.6-0.4,1-1,1.3-1.4c1-2.1,2-4.2,2.7-6.3c0.6-1.4,1.3-3.4,2-5.7l1.8-6.7c1-3.6,2-5.3,2.8-4.9c0.7,0.4,1,1.1,0.8,2.1
		c-0.1,1.3-0.4,2.7-1,4.2c-1.8,5.2-3.2,10.9-4.8,16.1c-0.7,1.8-1.5,3.5-2.8,5c-1.5,2-3.5,2.4-5.7,1.4c-1.4-0.7-2.5-1.8-3.5-3.1
		c-0.8-1.1-1.7-2.8-2.4-5c-1.7-5.2-2.7-11.3-2.9-18.5c-0.1-4.1,0-8.4-0.1-12.7c-0.1-3.9,0.1-8.3,0.3-12.3c0-1.8-0.1-3.2-0.4-3.9
		c-0.4-0.1-0.7,0.1-1,0.6c-1.3,2-2.2,4.2-3.2,6.7c-2.7,7.7-4.9,15.4-7,23.2c-0.6,2.1-1.5,4.2-2.2,6c-0.4,1-1.1,1.3-2.1,1
		c-2-0.4-3.2-1.5-3.8-3.4c-0.7-1.8-1-3.9-1-6.2c0-7.3-0.4-14.1-0.6-21.3c-0.1-2.4,0.1-4.9,0.1-7.3v-6.4V44c0-0.7,0-1.8-0.1-3.4
		c0,0-0.1-0.3-0.6-1c-1.8,1.7-3.2,4.2-4.2,7.7C259,48.9,258.6,49.6,258.6,49.6z"/>
	<path class="st6" d="M305.2,91.9v-1c0-0.1,0.1-2,0.6-5.5c1.7-4.9,4.8-7.4,9.2-7.4c1,0.1,1.8,0.7,2.2,1.7c0.4,1.3,0.6,2.4,0.6,3.1
		c-0.1,2.1-0.7,3.8-1.4,5c-0.4,0.6-0.4,1.1-0.8,1.7c-0.6,1.1-1.3,2-2.2,2.5l-2.4,1.7c-0.3,0.1-0.4,0.4-0.6,0.7
		c-0.3,2.1-0.3,3.8-0.1,5.2c0.1,4.1,0.6,5,0.7,6.7c0,1.3,0.7,2.5,2,3.8c1,1.3,2.2,1.4,3.6,0.4c0.7-0.6,1.5-1.1,2.2-1.8
		c1.3-1.3,2.8-3.4,4.6-6c0.4-0.6,0.6-1.3,1.1-2c0.1-0.3,0.1-0.6,0.3-0.7c1.3-2.1,2.1-4.5,3.2-6.9c1-2.2,1.5-4.8,2.2-7.1
		c-0.1-0.3,0.1-1.3,0.7-2.8c0.1-0.6,0.6-0.8,1.4-0.7c0,0,0,0,0.1,0c0.6,0.1,0.8,0.6,0.7,1.1c-0.4,1.5-0.6,2.4-0.6,2.4
		c-1.1,3.9-2.1,7.8-3.8,11.3l-1.4,2.5l-1.3,2.4l-1,1.7c-0.4,0.6-1,1.4-1.7,2.7l-2.2,2.9c-0.4,0.4-0.7,1-0.8,1.5
		c-0.6,0.8-1.3,1.4-2.2,1.7l-2.5,0.7c-1,0-1.5-0.3-2.5-0.1c-0.3,0-0.7-0.1-1.1-0.3l-2.9-1.7l-0.7-0.8c-1.3-1.7-2.2-3.8-2.7-6.2
		l-0.6-5.2c-0.1-0.6-0.3-1.8-0.4-3.8C304.9,94.3,304.8,93.2,305.2,91.9z M314.8,83.2c-0.4,0.6-0.8,0.6-0.8,1c-1.1,2.2-2,3.6-2.4,4.1
		c-0.4,0.3-0.6,1-0.4,2c0,0.1,0,0.4,0,0.4c0.4,0,0.7-0.1,0.7-0.3c0.6-1,1.1-2.1,2.1-3.4c0.7-1,1-2.1,1-3.6c0.1-0.4,0.3-0.6,0.3-0.4
		c0-0.1-0.1-0.4-0.3-0.6h-0.1v0.8H314.8z"/>
	<path class="st6" d="M330.2,93.2c-0.1-1.4-0.3-2.9-0.1-4.5c-0.1-0.7-0.1-1.7-0.1-3c0-2.9,0-5,0.1-6.4c0-1.5,0.3-2.9,0.3-4.5
		c-0.1-1.5,0-2.9,0-4.5c0-0.7,0.1-1.7,0.3-2.7c0.3-1.8,0.3-4.1,0.1-6.7c0-0.7-0.3-1-1-1.1c-1-0.1-2.5-0.6-4.5-1.3
		c-1.5-0.4-2.9-0.7-4.2-0.8c-0.6,0-1,0-1.4-0.1c-2.2-0.3-4.9,0-8.1,0.7c-1.1,0.4-1.8,1-2.2,1.8l-0.7,2v1.1c-0.1,0.7-0.6,1.1-1.3,1.5
		c-0.6,0.4-1,0.1-1.1-0.6s-0.1-1.3-0.1-1.5c-0.1-2.2,0.7-4.1,2.7-5.3c0.4-0.4,1.3-0.8,2.4-1.4c0.6-0.3,1-0.4,1.3-0.4
		c2.2-0.1,4.6-0.8,6.9-0.4c2.1,0.6,4.2,0.6,6,1c0.7,0.1,1.3,0.4,1.8,0.4c1.3,0.4,2.2,0.6,2.9,0.7s1.1-0.1,1.1-1.1
		c0-1.3,0.4-2.5,0.4-4.1c0-0.3,0.3-0.6,0.7-0.8c0.7-0.4,1.3-0.4,1.7-0.1c1.4,0.6,2.4,1.1,2.9,1.7c0.6,0.6,0.8,1.1,0.8,1.8
		c0,1.5,0,2.8,0.1,3.5c0,0.7,0.3,1,0.8,1.1c4.6,1.1,9.2,1.8,14.1,1.7c1.8,0,3.8,0.3,5.9-0.1h0.7c1.8,0.3,4.5,0.1,7.8-0.6
		c3.5-0.7,6.6-2.7,9.2-5.6c1.8-2,2.9-3.9,3.4-6l0.4-1.8v-3.2c0-0.7-0.1-1.8-0.6-3.2c-0.4-1.5-1.3-2.5-2.5-3.2l-1.7-1.3
		c-0.3-0.1-0.4-0.4-0.3-0.8c0.1-0.6,0.4-0.7,1.1-0.6l0.4,0.3l0.7,0.4c1.5,0.7,2.5,1.4,2.9,1.8s0.8,1.4,1.5,3.2
		c1.3,3.8,1.1,7.6-0.4,11.3c-1.1,2.5-2.1,4.3-3.1,5.6c-1.4,1.7-2.8,2.8-4.1,3.5c-1,0.4-1.7,1-2.7,1.4c-1.3,0.7-3.2,1.3-5.7,1.4h-2.9
		c-2.1,0-3.9,0-6,0.1c-1.1,0.1-2.4,0.3-3.6,0.3h-0.6c-2.2-0.4-4.2-0.3-6.3-0.4c-1.3,0-2.5-0.6-4.1-0.7l-3.8-0.7
		c-0.6-0.1-0.8,0.1-1,0.7c-0.4,1.5-0.6,2.7-0.4,3.2c0,1,0,1.5-0.1,1.8c-0.3,1-0.4,2.4-0.4,4.5c0,0.1,0,0.4,0,0.4
		c-0.6,2.1-0.4,3.9-0.4,5.7c0,1.8-0.1,3.4-0.3,4.6c-0.1,1.1-0.1,2.5-0.1,3.6c0,0.8,0,1.4,0.1,1.8c0.1,1.8,0,3.6,0,5.7
		c-0.1,2.1-0.1,4.1,0,5.9v1.5c-0.1,1.3-0.1,2.9-0.1,5.2c0,0.8,0.1,1.7,0.3,2.4c0.4,2.4,0.6,5,0.6,8.3c0,1,0.1,2.1,0.3,3.4
		c0.1,1.7,0.3,2.9,0.3,3.8c0,1,0.1,1.8,0.4,2.5l0.6,1.8c0,0.7,0.4,1.7,0.6,2.4c0.1,0.4,0.4,0.8,1,1.3c0.4,0.1,0.7,0.3,1,0.1
		c0.1-0.4,0.7-0.4,0.8-0.8c1.4-1.7,2.4-3.5,2.9-5.3c0.4-2.1,1-3.8,1.7-5.2c0.3-0.4,0.6-1.3,0.7-2.2c0.3-2,0.7-3.6,1.1-4.9
		c0.3-0.8,0.6-2.2,0.8-4.1l0.7-4.2l0.4-3.5c0-0.4,0.1-1.5,0.4-3.4l0.4-1.8c0.1-2.2,0.4-4.5,0.8-6.7c0-1,0-2,0.1-3.1
		c0-0.7,0-1.7,0.1-2.7c0-0.4,0.1-1,0.6-1.7c0.3-0.3,0.6-0.4,0.8-0.4c0.4,0,0.7,0.3,0.8,0.7c0.1,0.1,0.1,0.3,0.1,0.4
		c0,2.7,0,4.6-0.1,5.9c-0.1,0.3-0.3,1.4-0.6,3.4c-0.1,1-0.3,1.5-0.3,1.4c0,0.7-0.1,2.4-0.6,4.8c-0.1,1.7-0.6,3.2-0.7,4.8
		c-0.4,1.3-0.4,2.8-0.8,4.1c0,0.1-0.1,0.4-0.1,0.4c0,1.8-0.7,3.4-1.1,5s-0.7,2.8-0.7,3.4l-0.8,3.4c-0.6,1.5-1,3.1-1.1,4.6
		c-0.1,1.1-0.6,2.2-1.1,3.2c-0.6,1.3-1.1,2.5-1.7,4.1c-0.4,0.7-1.1,1.4-1.8,2.1l-1.1,0.4c-2.1,0.4-3.8,0-5.3-1.1
		c-1-0.7-1.8-1.7-2.2-2.7l-0.3-0.6c-1.3-3.2-2-6-2.1-8.4c-0.1-1.8-0.6-3.6-0.7-5.5c0-0.7-0.1-1.5-0.1-2.2c-0.1-1.7-0.1-3.2-0.1-4.5
		v-1c-0.7-2.9-0.4-6-0.6-9.2C330.4,97.6,330.1,95.4,330.2,93.2z"/>
	<path class="st6" d="M361.2,75.8c1.4,0.3,1.8,1,1.1,2.2c-0.4,1-0.8,1.8-1.5,2.2c-1.3,1-2.5,2.4-3.6,4.5c-0.7,1.3-0.8,2.5-0.7,3.9
		l0.6,3.2c0.4,1.7,0.7,2.8,1,3.5l2.2,5.7c0.1,0.4,0.3,0.8,0.4,1c0.1,0.3,0.3,0.4,0.6,0.3c0.4-0.1,0.7-0.3,1-0.6
		c1.1-0.7,2.1-1.7,3.2-2.2l0.7-0.6l2.4-2.1c1.5-1.4,2.9-3.1,4.5-5.2c0.4-0.7,0.6-1.1,0.6-1.1c1.3-1.5,2.1-3.8,2.8-6.6
		c0.1-0.7,0.6-1.1,1-1.5s0.8-0.4,1.3,0c0.7,0.6,0.8,1.1,0.7,1.7c-1.3,4.1-2.9,7.4-5,9.9c-1.1,1.1-1.7,2.4-2.8,3.4l-2,1.7
		c0,0.1-0.1,0.1-0.3,0.3c-1.7,1.7-3.6,2.9-5.5,4.2c-0.1,0-0.3,0.1-0.3,0.3c-0.6,0.4-1.4,0.7-1.8,1.4l0.4,2c0.3,1.3,0.3,2.2,0,2.9
		c-0.1,0.4-0.3,0.8-0.3,1.4c0,0.7-0.3,1.7-0.8,3.2l-0.8,2.1c-0.4,1-1.1,1.5-2,1.8c-1,0.4-1.8,0.8-2.4,1c-1.5,0.4-2.8,0-3.5-1.5
		s-1-2.9-0.7-4.2c0.6-2.4,1.5-4.5,3.1-6.4c0,0,0.7-0.6,2.1-1.8c0.4-0.4,0.4-0.8,0.3-1.3l-0.8-2.7l-2.9-7.4c-0.7-1.3-0.8-2.8-1.3-4.5
		c-0.1-1.3-0.3-2.1-0.4-2.4c-0.1-0.4-0.1-0.7-0.1-1.1c0.1-1.8,0.4-3.5,0.8-4.9c0.8-1.8,1.8-3.2,2.8-4.2l1-0.8c1.1-1,2.4-1.3,3.9-1
		c0.1,0,0.3,0,0.7,0.1C360.8,75.8,360.9,75.8,361.2,75.8z M353.6,116.1c-0.1,0.4,0.1,0.7,0.6,1c0.3,0.1,0.6,0.1,1-0.1
		s0.8-0.7,1.3-1.3c0.8-1.5,1.3-3.4,1.3-5.3v-1.5c0-0.4-0.1-0.6-0.6-0.1s-0.7,0.7-0.7,0.7l-1.1,1.5c-0.6,1-1.1,2.2-1.5,4.1
		C353.8,115.1,353.8,115.4,353.6,116.1z"/>
	<path class="st6" d="M400.5,82.8c-0.1,0.4-0.1,1-0.1,1.8v3.2c-0.1,1.1,0,2.1,0.1,2.9v1.4c-0.1,1.3-0.1,2.2,0,2.7v0.8
		c-0.1,3.4,0.1,6.4,0.6,9.4c0.1,1.5,0.6,2.8,1,4.1c0.1,0.3,0.3,0.3,0.6,0.1c0.4-0.3,1-0.8,1.5-1.5c0.6-0.7,1.1-2,1.7-3.5
		c0.4-1,0.7-2,1-2.8l0.4-1c0.4-2.1,0.7-4.2,1.1-6l1-3.9l0.6-2.4c0-0.3,0-0.7,0.1-1.4c0.3-0.8,0.4-1.5,0.4-2c0-0.3,0.1-0.8,0.4-1.5
		c0.1-0.3,0.6-0.4,1-0.4s0.6,0.1,0.7,0.6c0,1,0,1.4,0,1.1c-0.3,3.1-0.7,5.5-1.3,7.3l-0.4,2.7c-1,3.5-1.4,6.9-2.7,10.2
		c-0.4,1.3-0.7,2.2-1.1,2.9c-0.6,1.3-1.4,2.2-2.5,3.1c-0.7,0.7-1.5,1.1-2.2,1.3c-0.4,0-0.7,0-1-0.1l-1.8-0.6c-0.1,0-0.3-0.1-0.4-0.1
		c-0.7-1.1-1.7-1.7-2.2-2.9c-0.7-1.8-1.3-3.6-1.4-5.5c-0.3-1.8-0.6-4.5-0.8-8c-0.1-0.1-0.1-1-0.1-2.2v-1c0-0.1-0.1-0.1-0.3-0.3
		c-0.1-0.1-0.1,0-0.3,0.1c0.1-0.1,0,0.3-0.4,1.5c-0.6,1.5-0.8,2.4-1,2.5c-0.1,0.6-0.6,1.4-1.1,2.5c-0.4,0.8-0.7,1.3-0.7,1.3
		c0,0.7-0.4,1.5-1.3,2.8c-0.1,0.3-0.4,0.7-0.8,1.1c-0.8,1.3-2.2,2.4-4.1,3.1c-1.5,0.7-3.1,0.6-4.6-0.4c-0.8-0.6-2-1.8-3.5-3.6
		c-0.1-0.4-0.4-1-0.6-1.8l-0.7-3.2c-0.1-0.3-0.1-0.7-0.1-1.4c0.4-1.8,0.3-3.9,0.3-6.2l0.4-2.5c0.1-0.3,0.1-0.8,0.3-1.5
		c0.1-0.7,0-1.5,0.1-2.2c0,0,0.1-0.7,0.4-2.2c0-0.7,0.3-1.5,0.8-2.2c0.4-0.6,1-0.8,1.7-0.8c0,0,0,0,0.1,0c1.4,0,2.7,0.6,3.8,1.8
		c0.6,0.4,0.7,1.1,0.6,1.8l-1.4,6l-0.3,1.4l-1,7.7c-0.1,1.1,0.1,2.8,0.6,5.2c0,0.1,0.1,0.4,0.3,0.8c0.6,1.1,1.4,1.4,2.5,0.7
		c1-0.7,1.5-1.1,1.7-1.5c1.1-1.5,2.5-3.1,3.2-4.9c0.1-0.1,0.4-0.8,0.8-2c1-2.9,1.8-6.2,2.9-9.4c1-2.2,1.1-4.5,1.7-7.1
		c0.4-1.8,0.7-3.8,1.1-5.9l0.6-1.7c0.1-0.4,0.4-0.8,0.8-1.4c0.3-0.3,0.6-0.3,0.8-0.1c0.8,0.1,1.4,0.4,1.7,0.6c1,0.4,1.5,1.1,1.5,1.8
		c0,0.1,0,0.3,0,0.3c0.4,1.1,0.4,3.1,0.1,5.7C401.2,79.4,401.1,81.1,400.5,82.8z"/>
	<path class="st6" d="M419.6,93.2c0-0.1,0-0.3-0.1-0.4s-0.4,0-0.6,0.3l-1.3,1.7c-0.4,0.4-0.8,0.8-1.5,1.3c-0.8,0.7-1.7,1-2.5,0.6
		c-0.1-0.1-0.6-0.1-1.1-0.3c-0.4-0.1-0.8-0.3-1.1-0.7c-1-1.3-1.5-2.4-1.7-3.4c-0.4-2.1-0.8-4.1-0.4-6.2c0-2,0.6-3.9,1.7-5.9
		c0.1-0.4,0.4-0.8,0.6-1.5c0.8-2.4,2.1-4.3,3.8-5.9c1.5-1.5,3.4-2.2,5.5-2h0.1c0.7,0.1,1-0.3,1.1-1c0.4-2.1,1-4.3,1.1-6.7
		c0.1-1.5,0.4-3.2,1.1-5.2l3.8-12.3c0.7-2.7,1.8-5.6,3.2-8.7c1-2.4,2.4-4.5,4.1-6.6c1.3-1.5,2.5-2.5,4.1-3.2c0.6-0.1,1.1-0.1,1.5,0
		c0.7,0.1,1.1,0.1,1.4,0.3c0.4,0.1,0.8,0.4,1,0.6l2,2.1c0.6,0.7,0.8,1.4,0.8,2.4c0,1.5-0.6,2.8-0.1,4.1c0,0.1,0,0.4-0.1,0.6
		c-0.6,2.4-0.7,4.9-1.7,7.3c-0.8,2.5-1.5,4.5-2.2,5.7c-0.7,1.3-1.4,3.4-2.4,6.2c-0.1,0.4-0.3,0.6-0.3,1c-1.3,2.8-2.2,4.8-2.9,5.7
		c-0.7,1-1.4,2.7-2.2,5.3c-1,1.5-1.7,2.8-2.1,3.8c-0.7,1.4-1.3,2.5-2,3.5s-1.4,2-2.1,3.2c-0.4,0.8-0.7,1.3-0.6,1.1
		c-1,1-1.5,2.1-1.4,3.4c0,0.1-0.1,0.6-0.3,1c-0.4,2-0.6,3.8-0.3,5.5c0,0.6,0,1.4-0.1,2.4c-0.1,2.9,0,5.7,0,9c0,0.4,0.1,0.7,0.1,1.1
		c0,0.7,0.1,1.5,0.3,2.2c0.1,0.7,0.1,1.4,0.3,1.8l1.1,4.1c0.3,1.1,1.1,2.2,2.4,3.4c0.1,0.1,0.3,0.1,0.7,0l1.1-0.6
		c1.5-1.3,2.5-2.8,3.2-4.6l1.5-3.2l1-2.7l1-3.1c0.6-1.5,0.8-3.4,1.5-4.9l0.7-2.7c0.1-1.4,0.6-2.7,1-3.6c0-0.1,0.1-0.8,0.6-2.4
		c0.1-0.8,0.6-1.7,1-2.5l0.3-0.4c0.3-0.6,0.7-0.7,1.4-0.4c0.6,0.3,0.8,0.7,0.8,1.3c0,0.4-0.1,0.7-0.3,0.8l-0.8,2.4l-2.2,8
		c0,0.4-0.4,0.7-0.4,1.1c-0.6,1.5-0.8,2.5-1.3,4.1c-0.4,1.7-1.1,3.4-1.7,4.9c-0.4,1-0.6,1.5-0.6,1.5c-0.8,2.4-2.1,4.6-3.8,7
		c-0.6,0.6-0.8,1.3-1.3,1.8c-0.7,0.6-1.4,0.8-2.1,1h-2c-0.8,0-1.7-0.3-2.4-0.7l-1-0.7c-0.7-0.4-1.3-0.8-1.5-1.5l-1.3-2.2l-0.7-1.4
		c-0.7-2.1-1.3-4.2-1.8-6.3c-0.1-0.6-0.1-1.4-0.3-2.5c-0.1-2.2-0.3-4.6-0.3-7L419.6,93.2L419.6,93.2z M414.1,91.5v0.7
		c0.1,0.3,0.3,0.4,0.4,0.4s0.3,0,0.4-0.1c2.1-2.1,3.5-3.8,4.2-5c0.4-0.7,0.6-1.4,0.7-2.1c0.1-2.5,0.4-5,0.8-7.7v-1l-0.3-0.4
		c-0.1-0.1-0.3-0.1-0.4,0c-0.7,0.4-1.1,1-1.5,1.7c-1.4,2.1-2.4,3.9-2.8,5.2c-0.6,1-0.8,1.8-1,2.8c-0.7,1.4-0.8,2.9-0.6,4.6
		C414.1,91.2,414.1,91.5,414.1,91.5z M443.8,33.9c0.1-1.4-0.4-2.8-1.7-4.1c-0.4-0.4-0.8-0.4-1.4,0c-0.8,0.7-1.5,1.7-2,2.9l-2.4,4.8
		c-0.4,1.3-0.7,2-0.7,2.4c0,0.3-0.1,0.7-0.3,1.1c-0.4,1-0.8,2.4-1.3,3.9l-1,3.8c-0.7,1.5-1.1,3.1-1.4,4.3l-2.5,9.5
		c-0.1,0.4-0.3,0.8-0.3,1.3c-0.1,0.4-0.3,1.8-0.6,3.9c-0.4,2.8-0.8,4.9-1.3,6.2c-0.1,0.4-0.3,0.6-0.1,0.7c0,0.1,0.1,0.3,0.3,0.3
		c0.6-1,1.3-1.5,1.7-2.5c0.6-1.3,1.4-2.9,2.7-5l2.4-4.5l1.4-3.2c0.4-1.3,1-2.8,2-4.6c0.3-0.4,0.6-1.3,1-2.5c0.6-2.1,1.3-3.8,2.2-5.3
		c0.1-0.1,0.4-0.8,0.8-2.1c0.6-1.5,0.8-3.1,1.4-4.8c0.7-1.8,1-3.5,1-5L443.8,33.9L443.8,33.9z"/>
	<path class="st6" d="M458.2,89.5c0,0,0-0.7,0.1-2.1c0-1.3,0-2.1,0.1-2.7c0-0.1,0-0.3-0.1-0.3c-0.3,0-0.4,0-0.4,0.1
		c-0.7,1.1-1.3,2.2-1.8,3.4c-1,1.7-1.5,3.4-2.2,4.9c-0.4,0.8-1.1,2.2-2.4,4.2c-0.3,0.4-0.7,0.8-1.1,1.5c-0.6,0.8-1.3,1.7-2.2,2.4
		c-0.4,0.3-1,0.4-1.7,0.6c-1.1,0.1-2.1-0.4-2.9-1.4c-1.1-1.3-1.7-2.8-1.8-4.6c-0.1-3.4-0.1-6.2,0-8.5c0.1-1.5,0.6-3.2,1.1-5
		c1.1-2.7,2.4-5,3.9-7.3c1.4-2.1,3.2-3.6,5.5-4.6c0.6-0.3,1.4-0.4,2.7-0.6c2,0,3.6,0.1,5,0.6c0.1,0.1,0.4,0.4,0.8,0.4
		c0.6,0.6,0.6,1.1,0,1.7c-0.7,0.6-1.4,1-2.1,1.3c-1.4,0.4-2.1,0.6-2.2,0.6c-1.8,0.7-3.1,1.7-3.8,3.1c-0.6,0.7-1.3,1.3-1.7,2.2
		c-0.8,1-1.7,2.4-2.4,4.2c-1,2.5-1.7,5-1.8,7.4c-0.3,1.4-0.4,2.4-0.4,2.9c-0.1,0.7,0,1.7,0.1,2.9c0,0.1,0.1,0.3,0.3,0.4
		c0.1,0.1,0.3,0.1,0.6-0.1l2.2-2.9c1.5-2.4,2.9-4.9,3.9-7.6l1.7-3.4c0.6-1,1-1.7,1.3-2.4c0.1-0.4,0.7-1.3,1.4-2.7
		c0.4-0.7,1.1-1,1.8-1c1.8-0.1,3.2,0.3,4.3,1.3c0.4,0.4,0.6,0.8,0.6,1.3c0.1,2.4,0.3,4.1,0.1,4.8l-0.4,7.6v4.2
		c-0.1,0.4-0.1,0.8-0.1,1.4c-0.1,0.7-0.3,1.7-0.3,3.2c0.1,1.7,0.1,3.4,0,5.2c0,0.7,0.3,2,0.8,3.8c0,0.1,0.1,0.1,0.3,0.1
		c0,0,0.3,0,0.4,0c0.1-0.4,0.4-0.7,0.6-1l1.4-3.4c0.7-2.4,1.5-5.3,2.4-8.7c0.4-1.7,0.8-3.4,1.4-5c0-0.1,0.1-0.7,0.3-1.8
		c0.4-2.7,0.8-4.8,1.1-6c0-0.3,0.1-0.8,0.6-1.5c0.1-1,2.4-0.8,2.5-0.3c0,0.6-1.5,4.6-1.5,5.9l-1.1,5.2l-1.3,5
		c-0.3,1.3-0.4,1.8-0.3,1.4c-1.1,2.8-1.7,5.7-2.4,8.5c-0.1,0.3-0.1,0.4-0.1,0.6c0.1,0.7-0.4,2.1-1.4,4.1c-0.4,1-1.3,1.4-2.2,1.4H464
		c-1-0.1-1.7-0.7-2.4-1.4c-1-1.3-1.4-2-1.4-2c-0.7-1.3-1.1-2.2-1.1-2.9c-0.7-3.4-0.8-6.7-0.8-10.2V96c0,0,0,0,0.1,0
		C458.2,93.7,458.1,91.8,458.2,89.5z"/>
</g>
<g class="st1">
	<path class="st7" d="M258.6,49.6c-1,3.4-1.8,5.9-2.2,7.7c-0.6,1.3-0.7,2.8-1.1,4.3c-0.3,1.5-0.4,2.2-0.4,2.1c-1,3.4-2,7.1-2.7,11.3
		c-0.7,3.4-1.1,6.7-1.7,9.9c-0.6,2.9-0.8,6-1.4,8.8c-1,5.3-1.1,10.2-0.6,14.6c0.1,1.8-0.7,2.7-2.7,2.2c-2-0.4-2.9-1.5-3.1-3.4
		c-0.3-1.3-0.4-2.7-0.4-4.2L241.2,86c-0.1-5.6,0-11.2,0.1-16.9c0.4-5.7,0.4-11.6,0.8-17.6c0-0.7,0-2.1,0.1-4.2
		c-0.6,0.4-0.8,0.7-0.8,0.8c-1,1.5-1.8,2.9-2.4,4.6c-1.3,2.9-3.4,5.6-5,8.3c-0.1,0.4-0.8,1.3-2,2.4c-1,1-2,1-2.9,0
		c-1.1-0.8-1.4-1.8-0.8-3.1c1.7-2.2,3.4-4.6,4.9-7c2.4-4.3,4.9-8.8,5.5-13.9c0.1-1.5,0.7-3.1,1.8-4.6c1-1.3,2.2-1.5,3.8-1
		c0.6,0.1,1.1,0.6,1.5,0.7c1.8,0.8,2.8,2.2,2.8,4.3c0,4.6,0.1,9.4-0.3,14.3c-0.1,1.7-0.1,3.5-0.1,5c-0.4,7.8-0.8,15.7-0.8,23.5
		l0.4-1.7c0.1-1.4,0.3-2.1,0.4-2.2c0.1-3.4,1.3-6.7,2-10.1c1-3.9,1.8-7.8,2.9-11.6c1-3.5,1.8-7,3.1-10.4c1.1-2.7,2.5-5,3.8-7.4
		l0.1-0.3c2.1-3.9,5.5-2.8,7.7-1c0.8,0.7,1.5,2,2,3.5c0.7,2.5,1,4.6,1,6.3c-0.1,3.2-0.6,6.4,0,9.4c0.1,0.6,0.1,1.1,0,1.5
		c-0.4,3.9-0.1,8,0,11.8c0.1,4.1,0.3,8.4,0.3,12.5c0.4,0.1,0.6-0.1,0.7-0.7c0.7-2.9,1.4-6,2.5-9.2c1.3-5,2.7-10.2,4.9-15.1
		c0.7-1.5,1.5-2.9,2.5-4.3c1.8-2.4,4.1-2.8,6.6-1.3c2.2,1.5,3.5,3.2,3.6,5.2c0,1.7,0.1,3.2,0.1,4.9c0,5.7-0.3,11.3-0.3,16.9
		c-0.1,5.3,0.1,9.8,0.6,13.3c0.1,1.5,0.3,2.8,0.3,3.9c0.1,3.9,1.7,7.6,2.9,11.1c0.1,0.4,0.3,0.7,0.7,0.8s0.8,0.1,1.1,0
		c0.6-0.4,1-1,1.3-1.4c1-2.1,2-4.2,2.7-6.3c0.6-1.4,1.3-3.4,2-5.7l1.8-6.7c1-3.6,2-5.3,2.8-4.9c0.7,0.4,1,1.1,0.8,2.1
		c-0.1,1.3-0.4,2.7-1,4.2c-1.8,5.2-3.2,10.9-4.8,16.1c-0.7,1.8-1.5,3.5-2.8,5c-1.5,2-3.5,2.4-5.7,1.4c-1.4-0.7-2.5-1.8-3.5-3.1
		c-0.8-1.1-1.7-2.8-2.4-5c-1.7-5.2-2.7-11.3-2.9-18.5c-0.1-4.1,0-8.4-0.1-12.7c-0.1-3.9,0.1-8.3,0.3-12.3c0-1.8-0.1-3.2-0.4-3.9
		c-0.4-0.1-0.7,0.1-1,0.6c-1.3,2-2.2,4.2-3.2,6.7c-2.7,7.7-4.9,15.4-7,23.2c-0.6,2.1-1.5,4.2-2.2,6c-0.4,1-1.1,1.3-2.1,1
		c-2-0.4-3.2-1.5-3.8-3.4c-0.7-1.8-1-3.9-1-6.2c0-7.3-0.4-14.1-0.6-21.3c-0.1-2.4,0.1-4.9,0.1-7.3v-6.4V44c0-0.7,0-1.8-0.1-3.4
		c0,0-0.1-0.3-0.6-1c-1.8,1.7-3.2,4.2-4.2,7.7C259,48.9,258.6,49.6,258.6,49.6z"/>
	<path class="st7" d="M305.2,91.9v-1c0-0.1,0.1-2,0.6-5.5c1.7-4.9,4.8-7.4,9.2-7.4c1,0.1,1.8,0.7,2.2,1.7c0.4,1.3,0.6,2.4,0.6,3.1
		c-0.1,2.1-0.7,3.8-1.4,5c-0.4,0.6-0.4,1.1-0.8,1.7c-0.6,1.1-1.3,2-2.2,2.5l-2.4,1.7c-0.3,0.1-0.4,0.4-0.6,0.7
		c-0.3,2.1-0.3,3.8-0.1,5.2c0.1,4.1,0.6,5,0.7,6.7c0,1.3,0.7,2.5,2,3.8c1,1.3,2.2,1.4,3.6,0.4c0.7-0.6,1.5-1.1,2.2-1.8
		c1.3-1.3,2.8-3.4,4.6-6c0.4-0.6,0.6-1.3,1.1-2c0.1-0.3,0.1-0.6,0.3-0.7c1.3-2.1,2.1-4.5,3.2-6.9c1-2.2,1.5-4.8,2.2-7.1
		c-0.1-0.3,0.1-1.3,0.7-2.8c0.1-0.6,0.6-0.8,1.4-0.7c0,0,0,0,0.1,0c0.6,0.1,0.8,0.6,0.7,1.1c-0.4,1.5-0.6,2.4-0.6,2.4
		c-1.1,3.9-2.1,7.8-3.8,11.3l-1.4,2.5l-1.3,2.4l-1,1.7c-0.4,0.6-1,1.4-1.7,2.7l-2.2,2.9c-0.4,0.4-0.7,1-0.8,1.5
		c-0.6,0.8-1.3,1.4-2.2,1.7l-2.5,0.7c-1,0-1.5-0.3-2.5-0.1c-0.3,0-0.7-0.1-1.1-0.3l-2.9-1.7l-0.7-0.8c-1.3-1.7-2.2-3.8-2.7-6.2
		l-0.6-5.2c-0.1-0.6-0.3-1.8-0.4-3.8C304.9,94.3,304.8,93.2,305.2,91.9z M314.8,83.2c-0.4,0.6-0.8,0.6-0.8,1c-1.1,2.2-2,3.6-2.4,4.1
		c-0.4,0.3-0.6,1-0.4,2c0,0.1,0,0.4,0,0.4c0.4,0,0.7-0.1,0.7-0.3c0.6-1,1.1-2.1,2.1-3.4c0.7-1,1-2.1,1-3.6c0.1-0.4,0.3-0.6,0.3-0.4
		c0-0.1-0.1-0.4-0.3-0.6h-0.1v0.8H314.8z"/>
	<path class="st7" d="M330.2,93.2c-0.1-1.4-0.3-2.9-0.1-4.5c-0.1-0.7-0.1-1.7-0.1-3c0-2.9,0-5,0.1-6.4c0-1.5,0.3-2.9,0.3-4.5
		c-0.1-1.5,0-2.9,0-4.5c0-0.7,0.1-1.7,0.3-2.7c0.3-1.8,0.3-4.1,0.1-6.7c0-0.7-0.3-1-1-1.1c-1-0.1-2.5-0.6-4.5-1.3
		c-1.5-0.4-2.9-0.7-4.2-0.8c-0.6,0-1,0-1.4-0.1c-2.2-0.3-4.9,0-8.1,0.7c-1.1,0.4-1.8,1-2.2,1.8l-0.7,2v1.1c-0.1,0.7-0.6,1.1-1.3,1.5
		c-0.6,0.4-1,0.1-1.1-0.6s-0.1-1.3-0.1-1.5c-0.1-2.2,0.7-4.1,2.7-5.3c0.4-0.4,1.3-0.8,2.4-1.4c0.6-0.3,1-0.4,1.3-0.4
		c2.2-0.1,4.6-0.8,6.9-0.4c2.1,0.6,4.2,0.6,6,1c0.7,0.1,1.3,0.4,1.8,0.4c1.3,0.4,2.2,0.6,2.9,0.7s1.1-0.1,1.1-1.1
		c0-1.3,0.4-2.5,0.4-4.1c0-0.3,0.3-0.6,0.7-0.8c0.7-0.4,1.3-0.4,1.7-0.1c1.4,0.6,2.4,1.1,2.9,1.7c0.6,0.6,0.8,1.1,0.8,1.8
		c0,1.5,0,2.8,0.1,3.5c0,0.7,0.3,1,0.8,1.1c4.6,1.1,9.2,1.8,14.1,1.7c1.8,0,3.8,0.3,5.9-0.1h0.7c1.8,0.3,4.5,0.1,7.8-0.6
		c3.5-0.7,6.6-2.7,9.2-5.6c1.8-2,2.9-3.9,3.4-6l0.4-1.8v-3.2c0-0.7-0.1-1.8-0.6-3.2c-0.4-1.5-1.3-2.5-2.5-3.2l-1.7-1.3
		c-0.3-0.1-0.4-0.4-0.3-0.8c0.1-0.6,0.4-0.7,1.1-0.6l0.4,0.3l0.7,0.4c1.5,0.7,2.5,1.4,2.9,1.8s0.8,1.4,1.5,3.2
		c1.3,3.8,1.1,7.6-0.4,11.3c-1.1,2.5-2.1,4.3-3.1,5.6c-1.4,1.7-2.8,2.8-4.1,3.5c-1,0.4-1.7,1-2.7,1.4c-1.3,0.7-3.2,1.3-5.7,1.4h-2.9
		c-2.1,0-3.9,0-6,0.1c-1.1,0.1-2.4,0.3-3.6,0.3h-0.6c-2.2-0.4-4.2-0.3-6.3-0.4c-1.3,0-2.5-0.6-4.1-0.7l-3.8-0.7
		c-0.6-0.1-0.8,0.1-1,0.7c-0.4,1.5-0.6,2.7-0.4,3.2c0,1,0,1.5-0.1,1.8c-0.3,1-0.4,2.4-0.4,4.5c0,0.1,0,0.4,0,0.4
		c-0.6,2.1-0.4,3.9-0.4,5.7c0,1.8-0.1,3.4-0.3,4.6c-0.1,1.1-0.1,2.5-0.1,3.6c0,0.8,0,1.4,0.1,1.8c0.1,1.8,0,3.6,0,5.7
		c-0.1,2.1-0.1,4.1,0,5.9v1.5c-0.1,1.3-0.1,2.9-0.1,5.2c0,0.8,0.1,1.7,0.3,2.4c0.4,2.4,0.6,5,0.6,8.3c0,1,0.1,2.1,0.3,3.4
		c0.1,1.7,0.3,2.9,0.3,3.8c0,1,0.1,1.8,0.4,2.5l0.6,1.8c0,0.7,0.4,1.7,0.6,2.4c0.1,0.4,0.4,0.8,1,1.3c0.4,0.1,0.7,0.3,1,0.1
		c0.1-0.4,0.7-0.4,0.8-0.8c1.4-1.7,2.4-3.5,2.9-5.3c0.4-2.1,1-3.8,1.7-5.2c0.3-0.4,0.6-1.3,0.7-2.2c0.3-2,0.7-3.6,1.1-4.9
		c0.3-0.8,0.6-2.2,0.8-4.1l0.7-4.2l0.4-3.5c0-0.4,0.1-1.5,0.4-3.4l0.4-1.8c0.1-2.2,0.4-4.5,0.8-6.7c0-1,0-2,0.1-3.1
		c0-0.7,0-1.7,0.1-2.7c0-0.4,0.1-1,0.6-1.7c0.3-0.3,0.6-0.4,0.8-0.4c0.4,0,0.7,0.3,0.8,0.7c0.1,0.1,0.1,0.3,0.1,0.4
		c0,2.7,0,4.6-0.1,5.9c-0.1,0.3-0.3,1.4-0.6,3.4c-0.1,1-0.3,1.5-0.3,1.4c0,0.7-0.1,2.4-0.6,4.8c-0.1,1.7-0.6,3.2-0.7,4.8
		c-0.4,1.3-0.4,2.8-0.8,4.1c0,0.1-0.1,0.4-0.1,0.4c0,1.8-0.7,3.4-1.1,5s-0.7,2.8-0.7,3.4l-0.8,3.4c-0.6,1.5-1,3.1-1.1,4.6
		c-0.1,1.1-0.6,2.2-1.1,3.2c-0.6,1.3-1.1,2.5-1.7,4.1c-0.4,0.7-1.1,1.4-1.8,2.1l-1.1,0.4c-2.1,0.4-3.8,0-5.3-1.1
		c-1-0.7-1.8-1.7-2.2-2.7l-0.3-0.6c-1.3-3.2-2-6-2.1-8.4c-0.1-1.8-0.6-3.6-0.7-5.5c0-0.7-0.1-1.5-0.1-2.2c-0.1-1.7-0.1-3.2-0.1-4.5
		v-1c-0.7-2.9-0.4-6-0.6-9.2C330.4,97.6,330.1,95.4,330.2,93.2z"/>
	<path class="st7" d="M361.2,75.8c1.4,0.3,1.8,1,1.1,2.2c-0.4,1-0.8,1.8-1.5,2.2c-1.3,1-2.5,2.4-3.6,4.5c-0.7,1.3-0.8,2.5-0.7,3.9
		l0.6,3.2c0.4,1.7,0.7,2.8,1,3.5l2.2,5.7c0.1,0.4,0.3,0.8,0.4,1c0.1,0.3,0.3,0.4,0.6,0.3c0.4-0.1,0.7-0.3,1-0.6
		c1.1-0.7,2.1-1.7,3.2-2.2l0.7-0.6l2.4-2.1c1.5-1.4,2.9-3.1,4.5-5.2c0.4-0.7,0.6-1.1,0.6-1.1c1.3-1.5,2.1-3.8,2.8-6.6
		c0.1-0.7,0.6-1.1,1-1.5s0.8-0.4,1.3,0c0.7,0.6,0.8,1.1,0.7,1.7c-1.3,4.1-2.9,7.4-5,9.9c-1.1,1.1-1.7,2.4-2.8,3.4l-2,1.7
		c0,0.1-0.1,0.1-0.3,0.3c-1.7,1.7-3.6,2.9-5.5,4.2c-0.1,0-0.3,0.1-0.3,0.3c-0.6,0.4-1.4,0.7-1.8,1.4l0.4,2c0.3,1.3,0.3,2.2,0,2.9
		c-0.1,0.4-0.3,0.8-0.3,1.4c0,0.7-0.3,1.7-0.8,3.2l-0.8,2.1c-0.4,1-1.1,1.5-2,1.8c-1,0.4-1.8,0.8-2.4,1c-1.5,0.4-2.8,0-3.5-1.5
		s-1-2.9-0.7-4.2c0.6-2.4,1.5-4.5,3.1-6.4c0,0,0.7-0.6,2.1-1.8c0.4-0.4,0.4-0.8,0.3-1.3l-0.8-2.7l-2.9-7.4c-0.7-1.3-0.8-2.8-1.3-4.5
		c-0.1-1.3-0.3-2.1-0.4-2.4c-0.1-0.4-0.1-0.7-0.1-1.1c0.1-1.8,0.4-3.5,0.8-4.9c0.8-1.8,1.8-3.2,2.8-4.2l1-0.8c1.1-1,2.4-1.3,3.9-1
		c0.1,0,0.3,0,0.7,0.1C360.8,75.8,360.9,75.8,361.2,75.8z M353.6,116.1c-0.1,0.4,0.1,0.7,0.6,1c0.3,0.1,0.6,0.1,1-0.1
		s0.8-0.7,1.3-1.3c0.8-1.5,1.3-3.4,1.3-5.3v-1.5c0-0.4-0.1-0.6-0.6-0.1s-0.7,0.7-0.7,0.7l-1.1,1.5c-0.6,1-1.1,2.2-1.5,4.1
		C353.8,115.1,353.8,115.4,353.6,116.1z"/>
	<path class="st7" d="M400.5,82.8c-0.1,0.4-0.1,1-0.1,1.8v3.2c-0.1,1.1,0,2.1,0.1,2.9v1.4c-0.1,1.3-0.1,2.2,0,2.7v0.8
		c-0.1,3.4,0.1,6.4,0.6,9.4c0.1,1.5,0.6,2.8,1,4.1c0.1,0.3,0.3,0.3,0.6,0.1c0.4-0.3,1-0.8,1.5-1.5c0.6-0.7,1.1-2,1.7-3.5
		c0.4-1,0.7-2,1-2.8l0.4-1c0.4-2.1,0.7-4.2,1.1-6l1-3.9l0.6-2.4c0-0.3,0-0.7,0.1-1.4c0.3-0.8,0.4-1.5,0.4-2c0-0.3,0.1-0.8,0.4-1.5
		c0.1-0.3,0.6-0.4,1-0.4s0.6,0.1,0.7,0.6c0,1,0,1.4,0,1.1c-0.3,3.1-0.7,5.5-1.3,7.3l-0.4,2.7c-1,3.5-1.4,6.9-2.7,10.2
		c-0.4,1.3-0.7,2.2-1.1,2.9c-0.6,1.3-1.4,2.2-2.5,3.1c-0.7,0.7-1.5,1.1-2.2,1.3c-0.4,0-0.7,0-1-0.1l-1.8-0.6c-0.1,0-0.3-0.1-0.4-0.1
		c-0.7-1.1-1.7-1.7-2.2-2.9c-0.7-1.8-1.3-3.6-1.4-5.5c-0.3-1.8-0.6-4.5-0.8-8c-0.1-0.1-0.1-1-0.1-2.2v-1c0-0.1-0.1-0.1-0.3-0.3
		c-0.1-0.1-0.1,0-0.3,0.1c0.1-0.1,0,0.3-0.4,1.5c-0.6,1.5-0.8,2.4-1,2.5c-0.1,0.6-0.6,1.4-1.1,2.5c-0.4,0.8-0.7,1.3-0.7,1.3
		c0,0.7-0.4,1.5-1.3,2.8c-0.1,0.3-0.4,0.7-0.8,1.1c-0.8,1.3-2.2,2.4-4.1,3.1c-1.5,0.7-3.1,0.6-4.6-0.4c-0.8-0.6-2-1.8-3.5-3.6
		c-0.1-0.4-0.4-1-0.6-1.8l-0.7-3.2c-0.1-0.3-0.1-0.7-0.1-1.4c0.4-1.8,0.3-3.9,0.3-6.2l0.4-2.5c0.1-0.3,0.1-0.8,0.3-1.5
		c0.1-0.7,0-1.5,0.1-2.2c0,0,0.1-0.7,0.4-2.2c0-0.7,0.3-1.5,0.8-2.2c0.4-0.6,1-0.8,1.7-0.8c0,0,0,0,0.1,0c1.4,0,2.7,0.6,3.8,1.8
		c0.6,0.4,0.7,1.1,0.6,1.8l-1.4,6l-0.3,1.4l-1,7.7c-0.1,1.1,0.1,2.8,0.6,5.2c0,0.1,0.1,0.4,0.3,0.8c0.6,1.1,1.4,1.4,2.5,0.7
		c1-0.7,1.5-1.1,1.7-1.5c1.1-1.5,2.5-3.1,3.2-4.9c0.1-0.1,0.4-0.8,0.8-2c1-2.9,1.8-6.2,2.9-9.4c1-2.2,1.1-4.5,1.7-7.1
		c0.4-1.8,0.7-3.8,1.1-5.9l0.6-1.7c0.1-0.4,0.4-0.8,0.8-1.4c0.3-0.3,0.6-0.3,0.8-0.1c0.8,0.1,1.4,0.4,1.7,0.6c1,0.4,1.5,1.1,1.5,1.8
		c0,0.1,0,0.3,0,0.3c0.4,1.1,0.4,3.1,0.1,5.7C401.2,79.4,401.1,81.1,400.5,82.8z"/>
	<path class="st7" d="M419.6,93.2c0-0.1,0-0.3-0.1-0.4s-0.4,0-0.6,0.3l-1.3,1.7c-0.4,0.4-0.8,0.8-1.5,1.3c-0.8,0.7-1.7,1-2.5,0.6
		c-0.1-0.1-0.6-0.1-1.1-0.3c-0.4-0.1-0.8-0.3-1.1-0.7c-1-1.3-1.5-2.4-1.7-3.4c-0.4-2.1-0.8-4.1-0.4-6.2c0-2,0.6-3.9,1.7-5.9
		c0.1-0.4,0.4-0.8,0.6-1.5c0.8-2.4,2.1-4.3,3.8-5.9c1.5-1.5,3.4-2.2,5.5-2h0.1c0.7,0.1,1-0.3,1.1-1c0.4-2.1,1-4.3,1.1-6.7
		c0.1-1.5,0.4-3.2,1.1-5.2l3.8-12.3c0.7-2.7,1.8-5.6,3.2-8.7c1-2.4,2.4-4.5,4.1-6.6c1.3-1.5,2.5-2.5,4.1-3.2c0.6-0.1,1.1-0.1,1.5,0
		c0.7,0.1,1.1,0.1,1.4,0.3c0.4,0.1,0.8,0.4,1,0.6l2,2.1c0.6,0.7,0.8,1.4,0.8,2.4c0,1.5-0.6,2.8-0.1,4.1c0,0.1,0,0.4-0.1,0.6
		c-0.6,2.4-0.7,4.9-1.7,7.3c-0.8,2.5-1.5,4.5-2.2,5.7c-0.7,1.3-1.4,3.4-2.4,6.2c-0.1,0.4-0.3,0.6-0.3,1c-1.3,2.8-2.2,4.8-2.9,5.7
		c-0.7,1-1.4,2.7-2.2,5.3c-1,1.5-1.7,2.8-2.1,3.8c-0.7,1.4-1.3,2.5-2,3.5s-1.4,2-2.1,3.2c-0.4,0.8-0.7,1.3-0.6,1.1
		c-1,1-1.5,2.1-1.4,3.4c0,0.1-0.1,0.6-0.3,1c-0.4,2-0.6,3.8-0.3,5.5c0,0.6,0,1.4-0.1,2.4c-0.1,2.9,0,5.7,0,9c0,0.4,0.1,0.7,0.1,1.1
		c0,0.7,0.1,1.5,0.3,2.2c0.1,0.7,0.1,1.4,0.3,1.8l1.1,4.1c0.3,1.1,1.1,2.2,2.4,3.4c0.1,0.1,0.3,0.1,0.7,0l1.1-0.6
		c1.5-1.3,2.5-2.8,3.2-4.6l1.5-3.2l1-2.7l1-3.1c0.6-1.5,0.8-3.4,1.5-4.9l0.7-2.7c0.1-1.4,0.6-2.7,1-3.6c0-0.1,0.1-0.8,0.6-2.4
		c0.1-0.8,0.6-1.7,1-2.5l0.3-0.4c0.3-0.6,0.7-0.7,1.4-0.4c0.6,0.3,0.8,0.7,0.8,1.3c0,0.4-0.1,0.7-0.3,0.8l-0.8,2.4l-2.2,8
		c0,0.4-0.4,0.7-0.4,1.1c-0.6,1.5-0.8,2.5-1.3,4.1c-0.4,1.7-1.1,3.4-1.7,4.9c-0.4,1-0.6,1.5-0.6,1.5c-0.8,2.4-2.1,4.6-3.8,7
		c-0.6,0.6-0.8,1.3-1.3,1.8c-0.7,0.6-1.4,0.8-2.1,1h-2c-0.8,0-1.7-0.3-2.4-0.7l-1-0.7c-0.7-0.4-1.3-0.8-1.5-1.5l-1.3-2.2l-0.7-1.4
		c-0.7-2.1-1.3-4.2-1.8-6.3c-0.1-0.6-0.1-1.4-0.3-2.5c-0.1-2.2-0.3-4.6-0.3-7L419.6,93.2L419.6,93.2z M414.1,91.5v0.7
		c0.1,0.3,0.3,0.4,0.4,0.4s0.3,0,0.4-0.1c2.1-2.1,3.5-3.8,4.2-5c0.4-0.7,0.6-1.4,0.7-2.1c0.1-2.5,0.4-5,0.8-7.7v-1l-0.3-0.4
		c-0.1-0.1-0.3-0.1-0.4,0c-0.7,0.4-1.1,1-1.5,1.7c-1.4,2.1-2.4,3.9-2.8,5.2c-0.6,1-0.8,1.8-1,2.8c-0.7,1.4-0.8,2.9-0.6,4.6
		C414.1,91.2,414.1,91.5,414.1,91.5z M443.8,33.9c0.1-1.4-0.4-2.8-1.7-4.1c-0.4-0.4-0.8-0.4-1.4,0c-0.8,0.7-1.5,1.7-2,2.9l-2.4,4.8
		c-0.4,1.3-0.7,2-0.7,2.4c0,0.3-0.1,0.7-0.3,1.1c-0.4,1-0.8,2.4-1.3,3.9l-1,3.8c-0.7,1.5-1.1,3.1-1.4,4.3l-2.5,9.5
		c-0.1,0.4-0.3,0.8-0.3,1.3c-0.1,0.4-0.3,1.8-0.6,3.9c-0.4,2.8-0.8,4.9-1.3,6.2c-0.1,0.4-0.3,0.6-0.1,0.7c0,0.1,0.1,0.3,0.3,0.3
		c0.6-1,1.3-1.5,1.7-2.5c0.6-1.3,1.4-2.9,2.7-5l2.4-4.5l1.4-3.2c0.4-1.3,1-2.8,2-4.6c0.3-0.4,0.6-1.3,1-2.5c0.6-2.1,1.3-3.8,2.2-5.3
		c0.1-0.1,0.4-0.8,0.8-2.1c0.6-1.5,0.8-3.1,1.4-4.8c0.7-1.8,1-3.5,1-5L443.8,33.9L443.8,33.9z"/>
	<path class="st7" d="M458.2,89.5c0,0,0-0.7,0.1-2.1c0-1.3,0-2.1,0.1-2.7c0-0.1,0-0.3-0.1-0.3c-0.3,0-0.4,0-0.4,0.1
		c-0.7,1.1-1.3,2.2-1.8,3.4c-1,1.7-1.5,3.4-2.2,4.9c-0.4,0.8-1.1,2.2-2.4,4.2c-0.3,0.4-0.7,0.8-1.1,1.5c-0.6,0.8-1.3,1.7-2.2,2.4
		c-0.4,0.3-1,0.4-1.7,0.6c-1.1,0.1-2.1-0.4-2.9-1.4c-1.1-1.3-1.7-2.8-1.8-4.6c-0.1-3.4-0.1-6.2,0-8.5c0.1-1.5,0.6-3.2,1.1-5
		c1.1-2.7,2.4-5,3.9-7.3c1.4-2.1,3.2-3.6,5.5-4.6c0.6-0.3,1.4-0.4,2.7-0.6c2,0,3.6,0.1,5,0.6c0.1,0.1,0.4,0.4,0.8,0.4
		c0.6,0.6,0.6,1.1,0,1.7c-0.7,0.6-1.4,1-2.1,1.3c-1.4,0.4-2.1,0.6-2.2,0.6c-1.8,0.7-3.1,1.7-3.8,3.1c-0.6,0.7-1.3,1.3-1.7,2.2
		c-0.8,1-1.7,2.4-2.4,4.2c-1,2.5-1.7,5-1.8,7.4c-0.3,1.4-0.4,2.4-0.4,2.9c-0.1,0.7,0,1.7,0.1,2.9c0,0.1,0.1,0.3,0.3,0.4
		c0.1,0.1,0.3,0.1,0.6-0.1l2.2-2.9c1.5-2.4,2.9-4.9,3.9-7.6l1.7-3.4c0.6-1,1-1.7,1.3-2.4c0.1-0.4,0.7-1.3,1.4-2.7
		c0.4-0.7,1.1-1,1.8-1c1.8-0.1,3.2,0.3,4.3,1.3c0.4,0.4,0.6,0.8,0.6,1.3c0.1,2.4,0.3,4.1,0.1,4.8l-0.4,7.6v4.2
		c-0.1,0.4-0.1,0.8-0.1,1.4c-0.1,0.7-0.3,1.7-0.3,3.2c0.1,1.7,0.1,3.4,0,5.2c0,0.7,0.3,2,0.8,3.8c0,0.1,0.1,0.1,0.3,0.1
		c0,0,0.3,0,0.4,0c0.1-0.4,0.4-0.7,0.6-1l1.4-3.4c0.7-2.4,1.5-5.3,2.4-8.7c0.4-1.7,0.8-3.4,1.4-5c0-0.1,0.1-0.7,0.3-1.8
		c0.4-2.7,0.8-4.8,1.1-6c0-0.3,0.1-0.8,0.6-1.5c0.1-1,2.4-0.8,2.5-0.3c0,0.6-1.5,4.6-1.5,5.9l-1.1,5.2l-1.3,5
		c-0.3,1.3-0.4,1.8-0.3,1.4c-1.1,2.8-1.7,5.7-2.4,8.5c-0.1,0.3-0.1,0.4-0.1,0.6c0.1,0.7-0.4,2.1-1.4,4.1c-0.4,1-1.3,1.4-2.2,1.4H464
		c-1-0.1-1.7-0.7-2.4-1.4c-1-1.3-1.4-2-1.4-2c-0.7-1.3-1.1-2.2-1.1-2.9c-0.7-3.4-0.8-6.7-0.8-10.2V96c0,0,0,0,0.1,0
		C458.2,93.7,458.1,91.8,458.2,89.5z"/>
</g>
</svg>
